<?xml version="1.0" standalone="no"?>
<!DOCTYPE svg PUBLIC "-//W3C//DTD SVG 20010904//EN"
 "http://www.w3.org/TR/2001/REC-SVG-20010904/DTD/svg10.dtd">
<svg version="1.0" xmlns="http://www.w3.org/2000/svg"
 width="260.000000pt" height="260.000000pt" viewBox="0 0 260.000000 260.000000"
 preserveAspectRatio="xMidYMid meet">
<metadata>
Created by potrace 1.14, written by Peter Selinger 2001-2017
</metadata>
<g transform="translate(0.000000,260.000000) scale(0.100000,-0.100000)"
fill="#000000" stroke="none">
<path d="M570 2367 c-165 -55 -293 -189 -340 -354 -19 -64 -20 -103 -20 -714
0 -628 1 -649 21 -715 52 -172 181 -300 353 -353 66 -20 86 -21 716 -21 629 0
650 1 716 21 172 52 300 181 353 353 20 66 21 86 21 717 l0 648 -24 76 c-13
41 -38 97 -56 125 -40 63 -138 154 -198 184 -113 57 -104 56 -819 55 -649 0
-659 -1 -723 -22z m1374 -87 c171 -28 307 -167 336 -342 13 -85 13 -1192 0
-1277 -29 -178 -169 -315 -347 -341 -89 -13 -1177 -13 -1266 0 -178 26 -318
163 -347 341 -14 88 -14 1206 1 1283 31 168 168 309 327 336 69 11 1226 12
1296 0z"/>
<path d="M1101 1954 c-54 -45 -52 -79 13 -189 31 -53 56 -98 56 -100 0 -6
-276 -477 -295 -502 -15 -22 -22 -23 -154 -23 -124 0 -141 -2 -164 -20 -32
-26 -44 -79 -27 -121 25 -60 14 -59 477 -59 l423 0 0 23 c0 44 -21 94 -56 135
l-36 42 -109 0 c-75 0 -109 4 -109 11 0 13 5 22 234 412 86 148 159 282 163
298 7 37 -12 83 -43 104 -54 35 -126 9 -161 -58 l-16 -32 -21 30 c-59 82 -117
98 -175 49z"/>
<path d="M1431 1491 c-40 -76 -49 -143 -28 -206 9 -26 54 -110 100 -188 269
-454 260 -441 299 -460 32 -16 40 -16 70 -4 55 23 73 52 69 112 0 12 -21 54
-46 95 -24 41 -45 81 -45 88 0 9 24 12 85 12 77 0 88 2 110 24 43 43 45 99 6
147 -18 23 -26 24 -177 29 l-157 5 -116 199 c-64 110 -121 201 -127 203 -6 2
-25 -23 -43 -56z"/>
<path d="M684 815 c-47 -32 -56 -123 -16 -157 71 -62 136 -40 196 67 l24 44
-22 20 c-44 41 -141 55 -182 26z"/>
</g>
</svg>
